<svg width="512" height="512" viewBox="0 0 512 512" fill="none" xmlns="http://www.w3.org/2000/svg">
<path d="M256 0C114.401 0 0 114.269 0 256C0 397.731 114.269 512 256 512C397.731 512 512 397.731 512 256C512 114.269 397.601 0 256 0ZM256 477.77C133.14 477.77 34.229 378.858 34.229 255.999C34.229 133.139 133.142 34.2275 256 34.2275C378.858 34.2275 477.771 133.139 477.771 255.999C477.771 378.858 378.86 477.77 256 477.77Z" fill="#FF7316"/>
<path d="M349.836 245.719L237.259 133.142C230.492 126.375 220.209 126.375 213.312 133.142C206.545 139.909 206.545 150.191 213.312 157.09L312.224 256.001L213.312 354.913C206.545 361.68 206.545 371.962 213.312 378.859C216.696 382.243 220.079 383.935 225.286 383.935C228.67 383.935 233.877 382.243 238.951 380.551L349.836 269.666C353.22 266.282 354.913 262.899 354.913 257.692C354.913 252.616 353.221 249.103 349.836 245.719Z" fill="#646464"/>
</svg>
