<svg width="512" height="512" viewBox="0 0 512 512" fill="none" xmlns="http://www.w3.org/2000/svg">
<path d="M256 0C114.615 0 0 114.615 0 256C0 397.385 114.615 512 256 512C397.385 512 512 397.385 512 256C512 114.615 397.385 0 256 0ZM256 480C132.288 480 32 379.712 32 256C32 132.288 132.288 32 256 32C379.712 32 480 132.288 480 256C480 379.712 379.712 480 256 480Z" fill="#FF7316"/>
<path d="M292.64 116.8L164.64 244.8C158.436 251.041 158.436 261.119 164.64 267.36L292.64 395.36L315.2 372.64L198.56 256L315.2 139.36L292.64 116.8Z" fill="#646464"/>
</svg>
